<svg className="trial-blob-1" viewBox="0 0 200 200" xmlns="http://www.w3.org/2000/svg">
        <path
          fill="#FFC2CC4D"
          d="M50.5,-28.7C60.9,-11.3,61.4,12.3,51.4,30.6C41.3,48.8,20.7,61.9,0.4,61.6C-19.9,61.4,-39.8,47.9,-50.9,29C-62,10.1,-64.4,-14.2,-54.5,-31.4C-44.5,-48.6,-22.3,-58.7,-1.1,-58.1C20.1,-57.5,40.2,-46.1,50.5,-28.7Z"
          transform="translate(50 70) scale(0.72)"
        />
        <path
          fill="#fffec24d"
          d="M38.4,18.6C27.6,41,-18.7,39.2,-31,16C-43.3,-7.2,-21.7,-51.8,1.5,-51C24.6,-50.1,49.3,-3.7,38.4,18.6Z"
          transform="translate(80 100) scale(0.7)"
        />
  
        <path
          fill="#c2ffff4d"
          d="M31.8,-56C41.3,-49.7,49.1,-41.3,60.1,-31.6C71,-21.9,85,-11,87.7,1.5C90.4,14.1,81.7,28.1,72.2,40.3C62.8,52.5,52.5,62.9,40.3,71C28.2,79.2,14.1,85.1,-1.2,87.2C-16.4,89.2,-32.8,87.2,-46,79.6C-59.1,72,-69,58.8,-76.9,44.6C-84.9,30.3,-90.9,15.2,-91.1,-0.1C-91.3,-15.4,-85.6,-30.7,-75,-40.5C-64.5,-50.2,-49.1,-54.2,-35.8,-58.4C-22.4,-62.5,-11.2,-66.6,0,-66.6C11.2,-66.5,22.3,-62.3,31.8,-56Z"
          transform="translate(200 18) scale(0.5)"
        />
         <path
          fill="#ffc2f74d"
          d="M50.3,-34.3C60,-12.2,59.1,10.7,49,27.5C38.8,44.4,19.4,55.1,-3.4,57C-26.2,59,-52.3,52.1,-61.4,35.9C-70.5,19.7,-62.5,-5.8,-49.4,-29.9C-36.3,-54,-18.2,-76.5,1.1,-77.1C20.3,-77.7,40.6,-56.4,50.3,-34.3Z"
          transform="translate(178 158) scale(0.7)"
        />
        <path
          fill="#c2ffed4d"
          d="M46,0.8C46,21.5,23,43,-1.3,43C-25.6,43,-51.1,21.5,-51.1,0.8C-51.1,-19.9,-25.6,-39.8,-1.3,-39.8C23,-39.8,46,-19.9,46,0.8Z"
          transform="translate(138 175) scale(0.7)"
        /> 
           
      </svg>

